<svg width="160" height="53" viewBox="0 0 40 53" role="img" aria-label="Only Chomps" fill="none" title="Only CHOMPS" xmlns="http://www.w3.org/2000/svg">
    <text x="-60%" y="55%" dominant-baseline="middle" text-anchor="middle" font-size="30" font-family="Arial" fill="#00aff0">Only</text>
    <rect width="105" height="53" fill="none"></rect>
    <path d="M15.2569 11.4141C13.3613 11.4141 11.8476 11.9866 10.7157 13.1316C9.58377 14.2766 9.01578 15.8043 9.01172 17.7145V35.2834C9.01172 37.1691 9.5858 38.6905 10.734 39.8479C11.8821 41.0052 13.3898 41.5845 15.2569 41.5859C17.1524 41.5859 18.6662 41.0127 19.7981 39.8663C20.93 38.7199 21.4973 37.1923 21.5 35.2834V31.8463H16.9608V35.5868C16.9608 36.0428 16.7813 36.4802 16.4618 36.8027C16.1422 37.1252 15.7088 37.3064 15.2569 37.3064C14.805 37.3064 14.3716 37.1252 14.052 36.8027C13.7324 36.4802 13.5529 36.0428 13.5529 35.5868V17.4091C13.5529 16.953 13.7324 16.5156 14.052 16.1931C14.3716 15.8707 14.805 15.6895 15.2569 15.6895C15.7088 15.6895 16.1422 15.8707 16.4618 16.1931C16.7813 16.5156 16.9608 16.953 16.9608 17.4091V21.1516H21.5V17.7145C21.5 15.8316 20.9266 14.3101 19.7798 13.1501C18.633 11.99 17.1254 11.4113 15.2569 11.4141Z" fill="#D02C2F"></path>
    <path d="M95.9886 21.1516V17.7145C95.9886 15.8316 95.4146 14.3101 94.2664 13.1501C93.1182 11.99 91.6106 11.4113 89.7435 11.4141C87.8479 11.4141 86.3342 11.9866 85.2023 13.1316C84.0704 14.2766 83.503 15.8043 83.5003 17.7145V20.01C83.4889 21.2605 83.7671 22.4965 84.3127 23.6193C84.8133 24.6682 85.5019 25.6147 86.3437 26.4108L88.6894 28.608C89.4204 29.2871 90.0737 30.0468 90.6371 30.8728C91.1557 31.6024 91.4393 32.4754 91.4495 33.3732V35.5868C91.4574 35.8175 91.4192 36.0474 91.3371 36.2628C91.2551 36.4783 91.1309 36.6749 90.972 36.8409C90.8131 37.0069 90.6227 37.1389 90.4122 37.2291C90.2016 37.3193 89.9752 37.3657 89.7465 37.3657C89.5178 37.3657 89.2914 37.3193 89.0809 37.2291C88.8703 37.1389 88.6799 37.0069 88.521 36.8409C88.3621 36.6749 88.2379 36.4783 88.1559 36.2628C88.0739 36.0474 88.0357 35.8175 88.0436 35.5868V31.8463H83.5003V35.2834C83.5003 37.1691 84.0737 38.6905 85.2206 39.8479C86.3674 41.0052 87.875 41.5845 89.7435 41.5859C91.639 41.5859 93.1528 41.0113 94.2847 39.8622C95.4166 38.7131 95.9846 37.1827 95.9886 35.2711V32.9736C95.9992 31.7225 95.7254 30.4857 95.1885 29.3581C94.6967 28.3103 94.0155 27.3643 93.1798 26.5686L90.8402 24.3674C90.1071 23.6856 89.4487 22.9263 88.8763 22.1026C88.35 21.3791 88.061 20.5077 88.0497 19.6103V17.4029C88.0418 17.1723 88.08 16.9423 88.162 16.7269C88.244 16.5114 88.3682 16.3148 88.5271 16.1488C88.686 15.9828 88.8764 15.8508 89.087 15.7606C89.2975 15.6705 89.5239 15.624 89.7526 15.624C89.9813 15.624 90.2077 15.6705 90.4183 15.7606C90.6288 15.8508 90.8192 15.9828 90.9781 16.1488C91.137 16.3148 91.2612 16.5114 91.3432 16.7269C91.4253 16.9423 91.4635 17.1723 91.4556 17.4029V21.1455L95.9886 21.1516Z" fill="#D02C2F"></path>
    <path d="M31.1854 24.21H27.7795V12.9004H23.2383V40.1024H27.7795V28.7928H31.1854V40.1024H35.7266V12.9004H31.1854V24.21Z" fill="#D02C2F"></path>
    <path d="M43.9589 12.8984H43.4288C41.8398 12.8984 40.3159 13.5355 39.1923 14.6693C38.0687 15.8032 37.4375 17.3411 37.4375 18.9447V34.0542C37.4375 35.6577 38.0687 37.1956 39.1923 38.3295C40.3159 39.4634 41.8398 40.1004 43.4288 40.1004H43.9589C45.5479 40.1004 47.0718 39.4634 48.1954 38.3295C49.3189 37.1956 49.9502 35.6577 49.9502 34.0542V18.9447C49.9502 17.3411 49.3189 15.8032 48.1954 14.6693C47.0718 13.5355 45.5479 12.8984 43.9589 12.8984ZM45.3968 34.3268C45.4047 34.5574 45.3665 34.7874 45.2844 35.0028C45.2024 35.2183 45.0782 35.4149 44.9193 35.5809C44.7604 35.7469 44.57 35.8789 44.3595 35.9691C44.1489 36.0592 43.9226 36.1057 43.6938 36.1057C43.4651 36.1057 43.2387 36.0592 43.0282 35.9691C42.8176 35.8789 42.6272 35.7469 42.4683 35.5809C42.3094 35.4149 42.1852 35.2183 42.1032 35.0028C42.0212 34.7874 41.983 34.5574 41.9909 34.3268V18.6721C42.0061 18.2266 42.1922 17.8044 42.5099 17.4947C42.8276 17.185 43.2521 17.0119 43.6938 17.0119C44.1356 17.0119 44.56 17.185 44.8777 17.4947C45.1954 17.8044 45.3815 18.2266 45.3968 18.6721V34.3268Z" fill="#D02C2F"></path>
    <path d="M67.5392 12.9004H63.7393L59.6104 22.4391L55.4835 12.9004H51.6836V40.1024H56.2248V25.8107L58.8772 31.4593H59.6104H60.3456L62.998 25.8107V40.1024H67.5392V12.9004Z" fill="#D02C2F"></path>
    <path d="M76.6253 12.8984H69.2773V40.0963H73.8185V28.7909H76.6253C77.3018 28.7911 77.9716 28.6569 78.5966 28.3957C79.2216 28.1346 79.7895 27.7518 80.2678 27.2691C80.7462 26.7864 81.1255 26.2133 81.3843 25.5825C81.643 24.9518 81.7761 24.2758 81.7758 23.5931V18.0962C81.7758 16.7176 81.2332 15.3956 80.2673 14.4208C79.3014 13.4461 77.9913 12.8984 76.6253 12.8984ZM77.2346 22.8799C77.2346 23.2299 77.0968 23.5657 76.8515 23.8132C76.6062 24.0607 76.2736 24.1998 75.9267 24.1998H73.8185V17.5079H75.9165C76.0891 17.5069 76.2601 17.5402 76.4198 17.606C76.5796 17.6718 76.7249 17.7689 76.8473 17.8915C76.9698 18.0141 77.0671 18.16 77.1335 18.3207C77.2 18.4814 77.2343 18.6537 77.2346 18.8279V22.8799Z" fill="#D02C2F"></path>
</svg>
